<?xml version="1.0" encoding="utf-8"  ?>
<!-- Generator: Adobe Illustrator 26.0.0, SVG Export Plug-In . SVG Version: 6.00 Build 0)  -->
<svg version="1.1" id="Capa_1" xmlns="http://www.w3.org/2000/svg" xmlns:xlink="http://www.w3.org/1999/xlink" x="0px" y="0px"
	 viewBox="0 0 512 512" style="enable-background:new 0 0 512 512;" xml:space="preserve">
<style type="text/css">
	.st0{fill:#FFFFFF;}
</style>
<g>
	<path class="st0" d="M195.2,512c-37.3,0-72.4-11.9-101.7-34.4c-5.5-4.2-10.7-8.8-15.6-13.6c-34.1-33.7-51.3-78.6-48.3-126.5
		c2.2-36.1,16.8-71,41-98.1c32.1-35.9,76.3-55.7,124.6-55.7c8.3,0,16.7,0.6,24.9,1.8l12.8,1.9V301l-19.7-6.5
		c-5.7-1.9-11.7-2.9-17.8-2.9c-15.3,0-29.6,6-40.2,16.8c-10.6,10.8-16.4,25.1-16.1,40.2c0.3,19.5,10.6,37.2,27.5,47.4
		c7.8,4.7,16.7,7.4,25.7,7.9c7.1,0.4,14.1-0.5,20.9-2.8c23.1-7.6,38.6-29.1,38.6-53.3l0.1-117.8V0h108.6l0.1,14.9
		c0.1,6.7,0.8,13.5,2,20c5.1,25.6,19.5,48.5,40.5,64.3c18.6,14.1,40.9,21.5,64.4,21.5c0.5,0,0.5,0,5.6,0.3l14,1v92v15l-5,0h-10
		c-0.1,0-0.2,0-0.2,0H467c0,0,0,0-0.1,0c-28.9,0-56-5.5-82.9-16.8c-8-3.4-15.8-7.2-23.3-11.6l0.3,147.8
		c-0.2,43.7-17.5,84.7-48.6,115.6c-25.3,25-57.2,41-92.4,46.2C211.9,511.4,203.5,512,195.2,512L195.2,512z M195.2,213.7
		c-39.6,0-75.9,16.2-102.2,45.7c-19.8,22.1-31.6,50.5-33.5,80c-2.4,39,11.6,75.7,39.5,103.3c4,4,8.3,7.8,12.8,11.2
		c23.9,18.4,52.8,28.2,83.4,28.2c6.9,0,13.8-0.5,20.5-1.5c28.8-4.3,54.9-17.4,75.7-37.9c25.5-25.2,39.6-58.6,39.7-94.2L330.6,142
		l24.2,18.7c12.5,9.6,26.3,17.7,40.9,23.8c20,8.4,40.1,13.1,61.2,14.2v-48.4c-26.1-2-50.8-11.2-71.9-27.2
		c-26.9-20.3-45.3-49.6-51.9-82.4c-0.7-3.5-1.3-7.1-1.7-10.7h-49.6v200l-0.1,117.8c0,37.2-23.8,70.1-59.2,81.8
		c-10.3,3.4-21.1,4.8-32,4.2c-13.9-0.8-27.5-5-39.5-12.1c-25.9-15.5-41.7-42.7-42.1-72.7c-0.3-23.2,8.4-45.2,24.8-61.7
		c16.4-16.6,38.2-25.8,61.6-25.8c2.5,0,5,0.1,7.5,0.3v-48.1C200.3,213.7,197.8,213.7,195.2,213.7L195.2,213.7z"/>
</g>
</svg>
