<svg enable-background="new 0 0 512 512" height="512" viewBox="0 0 512 512" width="512" xmlns="http://www.w3.org/2000/svg"><g id="_x30_2_x2C__United_States_x2C__country_x2C__national_x2C__flag_x2C__world_flag"><g id="XMLID_684_"><path id="XMLID_657_" d="m226 76h270l-10 20 10 20v40l-10 20 10 20v40l-10 20 10 20v40l-10 20 10 20v40l-10 20 10 20h-480l10-20-10-20v-40l10-20-10-20v-40l10-20-10-20z" fill="#d6062f"/><path id="XMLID_656_" d="m16 396h480v40h-480z" fill="#fff"/><path id="XMLID_655_" d="m16 316h480v40h-480z" fill="#fff"/><path id="XMLID_654_" d="m16 236h480v40h-480z" fill="#fff"/><path id="XMLID_653_" d="m226 156h270v40h-270z" fill="#fff"/><path id="XMLID_652_" d="m226 76h270v40h-270z" fill="#fff"/><path id="XMLID_651_" d="m16 76h210v160h-210z" fill="#2956b0"/><g fill="#fff"><path id="XMLID_650_" d="m51.175 85.37 3.175 9.772h10.275l-8.313 6.04 3.176 9.772-8.313-6.04-8.313 6.04 3.176-9.772-8.313-6.04h10.275z"/><path id="XMLID_649_" d="m97.725 85.37 3.175 9.772h10.275l-8.313 6.04 3.176 9.772-8.313-6.04-8.312 6.04 3.175-9.772-8.313-6.04h10.275z"/><path id="XMLID_648_" d="m144.275 85.37 3.175 9.772h10.275l-8.312 6.04 3.175 9.772-8.313-6.04-8.312 6.04 3.175-9.772-8.313-6.04h10.275z"/><path id="XMLID_647_" d="m190.825 85.37 3.175 9.772h10.275l-8.312 6.04 3.175 9.772-8.313-6.04-8.312 6.04 3.175-9.772-8.313-6.04h10.275z"/><path id="XMLID_646_" d="m51.175 123.929 3.175 9.772h10.275l-8.313 6.039 3.176 9.772-8.313-6.039-8.313 6.039 3.176-9.772-8.313-6.039h10.275z"/><path id="XMLID_645_" d="m97.725 123.929 3.175 9.772h10.275l-8.313 6.039 3.176 9.772-8.313-6.039-8.312 6.039 3.175-9.772-8.313-6.039h10.275z"/><path id="XMLID_644_" d="m144.275 123.929 3.175 9.772h10.275l-8.312 6.039 3.175 9.772-8.313-6.039-8.312 6.039 3.175-9.772-8.313-6.039h10.275z"/><path id="XMLID_643_" d="m190.825 123.929 3.175 9.772h10.275l-8.312 6.039 3.175 9.772-8.313-6.039-8.312 6.039 3.175-9.772-8.313-6.039h10.275z"/><path id="XMLID_642_" d="m51.175 162.488 3.175 9.772h10.275l-8.313 6.039 3.176 9.772-8.313-6.039-8.313 6.039 3.176-9.772-8.313-6.039h10.275z"/><path id="XMLID_641_" d="m97.725 162.488 3.175 9.772h10.275l-8.313 6.039 3.176 9.772-8.313-6.039-8.312 6.039 3.175-9.772-8.313-6.039h10.275z"/><path id="XMLID_640_" d="m144.275 162.488 3.175 9.772h10.275l-8.312 6.039 3.175 9.772-8.313-6.039-8.312 6.039 3.175-9.772-8.313-6.039h10.275z"/><path id="XMLID_639_" d="m190.825 162.488 3.175 9.772h10.275l-8.312 6.039 3.175 9.772-8.313-6.039-8.312 6.039 3.175-9.772-8.313-6.039h10.275z"/><path id="XMLID_638_" d="m51.175 201.046 3.175 9.772h10.275l-8.313 6.04 3.176 9.772-8.313-6.04-8.313 6.04 3.176-9.772-8.313-6.04h10.275z"/><path id="XMLID_637_" d="m97.725 201.046 3.175 9.772h10.275l-8.313 6.04 3.176 9.772-8.313-6.04-8.312 6.04 3.175-9.772-8.313-6.04h10.275z"/><path id="XMLID_636_" d="m144.275 201.046 3.175 9.772h10.275l-8.312 6.04 3.175 9.772-8.313-6.04-8.312 6.04 3.175-9.772-8.313-6.04h10.275z"/><path id="XMLID_635_" d="m190.825 201.046 3.175 9.772h10.275l-8.312 6.04 3.175 9.772-8.313-6.04-8.312 6.04 3.175-9.772-8.313-6.04h10.275z"/></g></g></g></svg>