<?xml version="1.0" encoding="utf-8"  ?>
<!-- Generator: Adobe Illustrator 26.0.0, SVG Export Plug-In . SVG Version: 6.00 Build 0)  -->
<svg version="1.1" id="Capa_1" xmlns="http://www.w3.org/2000/svg" xmlns:xlink="http://www.w3.org/1999/xlink" x="0px" y="0px"
	 viewBox="0 0 24 24" style="enable-background:new 0 0 24 24;" xml:space="preserve">
<style type="text/css">
	.st0{fill:#FFFFFF;}
</style>
<path class="st0" d="M17,20.8H7c-3.4,0-5.8-2.3-5.8-5.8V9c0-3.4,2.3-5.8,5.8-5.8h10c3.4,0,5.8,2.3,5.8,5.8v6
	C22.8,18.4,20.4,20.8,17,20.8z M7,4.8C4.4,4.8,2.8,6.4,2.8,9v6c0,2.6,1.7,4.2,4.2,4.2h10c2.6,0,4.2-1.7,4.2-4.2V9
	c0-2.6-1.7-4.2-4.2-4.2H7z"/>
<path class="st0" d="M10.6,15.5c-0.3,0-0.6-0.1-0.8-0.2c-0.6-0.3-0.9-1-0.9-1.8v-3c0-0.8,0.3-1.5,0.9-1.8c0.6-0.3,1.3-0.3,2,0.2
	l2.5,1.5c0.7,0.4,1.1,1,1.1,1.7c0,0.7-0.4,1.3-1.1,1.7l-2.5,1.5C11.4,15.4,11,15.5,10.6,15.5z M10.6,10C10.5,10,10.5,10,10.6,10
	c-0.2,0.1-0.2,0.2-0.2,0.5v3c0,0.3,0.1,0.5,0.2,0.5c0.1,0,0.3,0,0.5-0.1l2.5-1.5c0.2-0.1,0.3-0.3,0.3-0.4s-0.1-0.2-0.3-0.4L11,10.1
	C10.8,10,10.7,10,10.6,10z"/>
</svg>
