<?xml version="1.0" encoding="utf-8"  ?>
<!-- Generator: Adobe Illustrator 26.0.0, SVG Export Plug-In . SVG Version: 6.00 Build 0)  -->
<svg version="1.1" id="Capa_1" xmlns="http://www.w3.org/2000/svg" xmlns:xlink="http://www.w3.org/1999/xlink" x="0px" y="0px"
	 viewBox="0 0 24 24" style="enable-background:new 0 0 24 24;" xml:space="preserve">
<style type="text/css">
	.st0{fill:#FFFFFF;}
	.st1{fill:none;stroke:#FFFFFF;stroke-width:1.5;stroke-linecap:round;stroke-linejoin:round;}
</style>
<path class="st0" d="M14,9.3v3h2.6c0.2,0,0.3,0.2,0.3,0.4l-0.4,1.9c0,0.1-0.2,0.2-0.3,0.2H14V22h-3v-7.2H9.3c-0.2,0-0.3-0.1-0.3-0.3
	v-1.9c0-0.2,0.1-0.3,0.3-0.3H11V9c0-1.7,1.3-3,3-3h2.7C16.9,6,17,6.1,17,6.3v2.4C17,8.9,16.9,9,16.7,9h-2.4C14.1,9,14,9.1,14,9.3z"
	/>
<path class="st1" d="M15,22H9c-5,0-7-2-7-7V9c0-5,2-7,7-7h6c5,0,7,2,7,7v6C22,20,20,22,15,22z"/>
</svg>
